HIERARCHY
ROOT hip
{
  OFFSET 0 0 0
  CHANNELS 6 Xposition Yposition Zposition Zrotation Yrotation Xrotation
  JOINT abdomen
  {
    OFFSET 0 20.6881 -0.73152
    CHANNELS 3 Zrotation Xrotation Yrotation
    JOINT chest
    {
      OFFSET 0 11.7043 -0.48768
      CHANNELS 3 Zrotation Xrotation Yrotation
      JOINT neck
      {
        OFFSET 0 22.1894 -2.19456
        CHANNELS 3 Zrotation Xrotation Yrotation
        JOINT head
        {
          OFFSET -0.24384 7.07133 1.2192
          CHANNELS 3 Zrotation Xrotation Yrotation
          JOINT leftEye
          {
            OFFSET 4.14528 8.04674 8.04672
            CHANNELS 3 Zrotation Xrotation Yrotation
            End Site
            {
              OFFSET 1 0 0
            }
          }
          JOINT rightEye
          {
            OFFSET -3.6576 8.04674 8.04672
            CHANNELS 3 Zrotation Xrotation Yrotation
            End Site
            {
              OFFSET 1 0 0
            }
          }
        }
      }
      JOINT rCollar
      {
        OFFSET -2.68224 19.2634 -4.8768
        CHANNELS 3 Zrotation Xrotation Yrotation
        JOINT rShldr
        {
          OFFSET -8.77824 -1.95073 1.46304
          CHANNELS 3 Zrotation Xrotation Yrotation
          JOINT rForeArm
          {
            OFFSET -28.1742 -1.7115 0.48768
            CHANNELS 3 Zrotation Xrotation Yrotation
            JOINT rHand
            {
              OFFSET -22.5879 0.773209 7.07136
              CHANNELS 3 Zrotation Xrotation Yrotation
              JOINT rThumb1
              {
                OFFSET -1.2192 -0.487915 3.41376
                CHANNELS 3 Zrotation Xrotation Yrotation
                JOINT rThumb2
                {
                  OFFSET -3.37035 -0.52449 3.41376
                  CHANNELS 3 Zrotation Xrotation Yrotation
                  End Site
                  {
                    OFFSET -1.78271 -1.18214 1.43049
                  }
                }
              }
              JOINT rIndex1
              {
                OFFSET -7.75947 0.938293 5.60832
                CHANNELS 3 Zrotation Xrotation Yrotation
                JOINT rIndex2
                {
                  OFFSET -2.54057 -0.884171 1.56538
                  CHANNELS 3 Zrotation Xrotation Yrotation
                  End Site
                  {
                    OFFSET -1.62519 -0.234802 1.16502
                  }
                }
              }
              JOINT rMid1
              {
                OFFSET -8.24714 1.18213 3.41376
                CHANNELS 3 Zrotation Xrotation Yrotation
                JOINT rMid2
                {
                  OFFSET -3.10165 -0.590103 1.0647
                  CHANNELS 3 Zrotation Xrotation Yrotation
                  End Site
                  {
                    OFFSET -2.48547 -0.328903 0.83742
                  }
                }
              }
              JOINT rRing1
              {
                OFFSET -8.82822 0.546677 1.51678
                CHANNELS 3 Zrotation Xrotation Yrotation
                JOINT rRing2
                {
                  OFFSET -2.60934 -0.819778 -0.0198488
                  CHANNELS 3 Zrotation Xrotation Yrotation
                  End Site
                  {
                    OFFSET -2.33842 -0.294052 0.168128
                  }
                }
              }
              JOINT rPinky1
              {
                OFFSET -8.27202 -0.0477905 -0.4584
                CHANNELS 3 Zrotation Xrotation Yrotation
                JOINT rPinky2
                {
                  OFFSET -1.82734 -0.647385 -0.700984
                  CHANNELS 3 Zrotation Xrotation Yrotation
                  End Site
                  {
                    OFFSET -1.69225 -0.51767 -0.607171
                  }
                }
              }
            }
          }
        }
      }
      JOINT lCollar
      {
        OFFSET 2.68224 19.2634 -4.8768
        CHANNELS 3 Zrotation Xrotation Yrotation
        JOINT lShldr
        {
          OFFSET 8.77824 -1.95073 1.46304
          CHANNELS 3 Zrotation Xrotation Yrotation
          JOINT lForeArm
          {
            OFFSET 28.1742 -1.7115 0.48768
            CHANNELS 3 Zrotation Xrotation Yrotation
            JOINT lHand
            {
              OFFSET 22.5879 0.773209 7.07136
              CHANNELS 3 Zrotation Xrotation Yrotation
              JOINT lThumb1
              {
                OFFSET 1.2192 -0.487915 3.41376
                CHANNELS 3 Zrotation Xrotation Yrotation
                JOINT lThumb2
                {
                  OFFSET 3.37035 -0.52449 3.41376
                  CHANNELS 3 Zrotation Xrotation Yrotation
                  End Site
                  {
                    OFFSET 1.78271 -1.18214 1.43049
                  }
                }
              }
              JOINT lIndex1
              {
                OFFSET 7.75947 0.938293 5.60832
                CHANNELS 3 Zrotation Xrotation Yrotation
                JOINT lIndex2
                {
                  OFFSET 2.54057 -0.884171 1.56538
                  CHANNELS 3 Zrotation Xrotation Yrotation
                  End Site
                  {
                    OFFSET 1.62519 -0.234802 1.16502
                  }
                }
              }
              JOINT lMid1
              {
                OFFSET 8.24714 1.18213 3.41376
                CHANNELS 3 Zrotation Xrotation Yrotation
                JOINT lMid2
                {
                  OFFSET 3.10165 -0.590103 1.0647
                  CHANNELS 3 Zrotation Xrotation Yrotation
                  End Site
                  {
                    OFFSET 2.48547 -0.328903 0.83742
                  }
                }
              }
              JOINT lRing1
              {
                OFFSET 8.82822 0.546677 1.51678
                CHANNELS 3 Zrotation Xrotation Yrotation
                JOINT lRing2
                {
                  OFFSET 2.60934 -0.819778 -0.0198488
                  CHANNELS 3 Zrotation Xrotation Yrotation
                  End Site
                  {
                    OFFSET 2.33842 -0.294052 0.168128
                  }
                }
              }
              JOINT lPinky1
              {
                OFFSET 8.27202 -0.0477905 -0.4584
                CHANNELS 3 Zrotation Xrotation Yrotation
                JOINT lPinky2
                {
                  OFFSET 1.82734 -0.647385 -0.700984
                  CHANNELS 3 Zrotation Xrotation Yrotation
                  End Site
                  {
                    OFFSET 1.69225 -0.51767 -0.607171
                  }
                }
              }
            }
          }
        }
      }
    }
  }
  JOINT rButtock
  {
    OFFSET -8.77824 4.35084 1.2192
    CHANNELS 3 Zrotation Xrotation Yrotation
    JOINT rThigh
    {
      OFFSET 0 -1.70687 -2.19456
      CHANNELS 3 Zrotation Xrotation Yrotation
      JOINT rShin
      {
        OFFSET 0 -36.8199 0.73152
        CHANNELS 3 Zrotation Xrotation Yrotation
        JOINT rFoot
        {
          OFFSET 0.73152 -45.1104 -5.12064
          CHANNELS 3 Zrotation Xrotation Yrotation
          End Site
          {
            OFFSET -1.1221 -3.69964 12.103
          }
        }
      }
    }
  }
  JOINT lButtock
  {
    OFFSET 8.77824 4.35084 1.2192
    CHANNELS 3 Zrotation Xrotation Yrotation
    JOINT lThigh
    {
      OFFSET 0 -1.70687 -2.19456
      CHANNELS 3 Zrotation Xrotation Yrotation
      JOINT lShin
      {
        OFFSET 0 -36.8199 0.73152
        CHANNELS 3 Zrotation Xrotation Yrotation
        JOINT lFoot
        {
          OFFSET -0.73152 -45.1104 -5.12064
          CHANNELS 3 Zrotation Xrotation Yrotation
          End Site
          {
            OFFSET 1.1221 -3.69964 12.103
          }
        }
      }
    }
  }
}
MOTION
Frames:	6
Frame Time:	0.03333
0.0 0.0 0.0 0.0 0.0 0.0 0.0 0.0 0.0 0.0 0.0 0.0 0.0 0.0 0.0 0.0 0.0 0.0 0.0 0.0 0.0 0.0 0.0 0.0 0.0 0.0 0.0 0.0 0.0 0.0 0.0 0.0 0.0 0.0 0.0 0.0 0.0 0.0 0.0 0.0 0.0 0.0 0.0 0.0 0.0 0.0 0.0 0.0 0.0 0.0 0.0 0.0 0.0 0.0 0.0 0.0 0.0 0.0 0.0 0.0 0.0 0.0 0.0 0.0 0.0 0.0 0.0 0.0 0.0 0.0 0.0 0.0 0.0 0.0 0.0 0.0 0.0 0.0 0.0 0.0 0.0 0.0 0.0 0.0 0.0 0.0 0.0 0.0 0.0 0.0 0.0 0.0 0.0 0.0 0.0 0.0 0.0 0.0 0.0 0.0 0.0 0.0 0.0 0.0 0.0 0.0 0.0 0.0 0.0 0.0 0.0 0.0 0.0 0.0 0.0 0.0 0.0 0.0 0.0 0.0 0.0 0.0 0.0 0.0 0.0 0.0 0.0 0.0 0.0 0.0 0.0 0.0
-0.2147 62.097500000000004 -0.1116 -179.803082 -53.581287 179.067604 -2.122932 1.205428 81.704442 10.80868 -0.258679 -78.091886 -9.364152 -14.240158 -52.954474 23.687838 -30.525344 27.433693 33.488934 -17.162509 -53.273493 19.120122 -6.212997 -35.722047 -84.296595 -31.718071 168.966363 10.219501 -36.5581 2.054004 -71.682315 54.408283 -128.00824 95.801304 -52.584421 38.604482 173.122219 0.465737 62.397015 43.678873 -8.276646 129.677202 175.148571 49.592372 -159.165569 -8.750135 -55.900986 -66.758365 -14.385558 4.012035 -88.750047 -38.760494 70.541323 44.458445 -93.430421 13.691214 -100.233881 -68.471485 -82.618605 -90.384432 39.465711 13.858185 -57.064412 5.120284 0.168831 -5.670285 83.457658 -10.767383 -160.27233 148.663528 58.413942 -153.757913 178.209916 -56.416281 10.928785 -171.034446 -0.145411 -106.837281 -179.392073 5.060954 -72.329048 95.628727 5.384072 -36.076152 152.919781 -4.564652 -86.370011 -19.235191 -7.201229 14.980615 -38.057138 -47.631384 -65.472974 12.964443 -9.406245 32.456083 81.60265 40.854092 110.356711 -11.566829 -4.980983 -8.366499 -25.477819 -2.786609 88.63486 -5.391646 19.897309 -5.038947 28.019195 -40.865827 34.950549 -4.542932 48.579993 -0.0 4.067886 -5.485135 35.786391 -74.823795 24.461234 94.408282 -48.355618 -10.255742 -80.238577 0.54163 49.866196 -4.506751 5.49954 -0.363706 86.63073 -41.339886 -60.195894 129.771095
-0.5854 67.5546 -0.5701999999999999 175.145224 65.126934 179.271562 -6.467643 9.323489 -145.018019 1.732622 3.604976 140.084159 8.232634 16.701409 95.470241 -30.619449 12.235815 -131.348357 12.530576 1.206414 10.955498 40.633785 -7.166555 -19.199748 -4.84829 35.864589 6.938724 62.985296 -1.372489 27.38749 48.273072 -36.183195 59.278479 -36.395458 67.423193 26.482325 -159.481176 15.675105 88.725057 11.237412 -53.330649 23.850525 16.686111 -35.734312 -9.747471 -176.958706 -11.509514 107.011337 -3.372919 -18.896957 -8.316068 -38.964272 57.200521 39.955995 -149.92458 1.300689 179.971297 -152.346913 -76.248587 -168.117754 -5.924697 -47.815972 -20.670085 -165.091839 -6.950542 -158.661812 63.765204 -87.740068 85.42601 65.872421 -36.362788 85.676232 174.602151 -6.580663 135.714237 6.026751 14.303621 4.530754 79.593986 36.383566 -41.760248 49.181515 11.205031 -61.832855 17.841212 21.398847 -22.075605 2.758041 44.173305 17.418283 166.845698 -40.336555 -141.257387 51.112223 49.390698 -56.570796 -5.191542 2.715538 0.625469 -13.740517 0.773309 -6.554351 122.205573 -47.68607 117.268877 4.927323 1.88826 -9.570586 -2.414373 -7.696826 2.755952 -26.983653 -45.577344 180.0 -47.434453 -49.150701 -132.804627 -4.919671 7.589304 -90.885401 -144.916343 76.243137 -31.08501 -121.814609 82.66081 -120.427102 -28.568296 9.654705 82.977987 -157.972542 -29.140407 -22.947848
-1.1496 65.8105 -0.308 172.418132 65.046786 178.450687 -13.924036 10.507243 2.00726 7.965283 -9.32841 -10.905084 -14.564674 22.809229 -86.438919 34.221876 9.483787 49.872032 -41.745325 17.133172 -43.11308 9.752023 -1.784601 -20.693166 -154.441794 -4.066704 159.604144 -8.351946 -66.090276 37.865271 -4.568309 57.408637 -66.046595 169.168669 -32.645328 144.254582 -169.195175 -0.123745 79.320784 1.59089 -59.167241 25.293937 8.901349 -67.238386 -43.08907 -2.806891 35.627812 32.743249 -151.84841 -5.834957 144.380385 22.586002 -30.81995 -1.557198 8.564245 -0.116061 1.931046 -14.500344 29.215169 0.583513 25.147923 71.107581 45.24114 -134.047482 17.046601 -97.425957 141.721044 39.630238 -146.626329 114.920186 42.21507 -67.201067 160.677063 49.517703 156.893187 4.771853 29.723498 -0.775637 1.970189 6.847114 0.474335 148.27288 -28.76497 -107.86926 27.778187 21.686449 -18.471867 -56.850068 -3.894334 29.640038 145.889724 31.109795 -127.489664 17.385378 -6.279506 -19.995366 46.126731 53.440526 -40.769199 132.910259 -11.553073 -136.087625 93.962917 -44.09332 107.103755 140.69659 56.297223 -169.710162 1.851232 -8.123432 -2.096068 -34.171826 -57.288213 -180.0 -69.953798 -62.146979 -68.34483 77.159598 20.406242 -168.283124 -39.178829 15.42516 -39.816509 39.165801 20.865292 -66.383001 -46.009646 -21.708304 -43.186803 -69.914424 19.973383 -163.652982
-1.0528 64.5084 -0.2603 171.358671 64.230291 178.23115 -14.538009 7.358515 -63.718077 10.370847 4.671382 45.875373 0.434736 29.5819 128.012509 -30.994971 24.504965 -158.449047 -2.084098 0.442006 -23.945837 2.247521 -0.430301 -21.674294 176.833789 -76.190276 153.350103 -73.951635 -41.785158 -64.815371 94.78353 34.79235 -116.255592 -149.337066 56.809295 127.652674 -84.521866 33.544753 49.102779 60.675587 -37.201008 31.323183 -104.427336 31.953047 91.989269 -96.650539 50.832188 89.313728 -149.534459 -6.831698 142.754018 3.307588 31.43094 8.788102 -140.519043 40.310787 158.012199 -33.829772 77.884064 40.219921 -125.983541 23.153529 -137.852043 22.612048 -32.568045 -18.476373 -1.335342 1.961102 8.659224 -70.11221 22.041578 -14.817685 8.954432 -0.049444 -34.292323 0.618171 27.551994 0.609187 165.761543 -8.374218 -90.508254 135.142993 -5.597214 -79.939846 124.301979 32.165346 -101.501213 1.6014 -28.957194 3.148003 -65.325471 -81.263622 -36.583152 164.666473 -58.296127 -149.58763 164.483739 -29.907775 171.006543 53.90442 -48.857208 59.853744 121.341228 -32.385598 122.982236 162.687006 49.777096 157.792645 -0.935901 -0.484833 -0.92796 -41.243565 -64.345858 -180.0 -80.470461 -54.26871 -53.16795 93.395111 -8.130431 -168.543117 -51.137839 16.71621 -45.051209 47.95885 29.854795 -27.943174 -51.671705 9.261753 -83.974797 -114.073438 -12.79537 -168.141683
-0.8251 65.2501 -0.1325 171.770333 61.877885 179.177154 -14.522391 7.600421 -90.944948 7.99612 6.894381 74.015775 -13.897796 20.279391 -21.199412 25.886655 -17.489081 -23.59393 2.155834 -0.251196 -13.290662 3.660724 0.032991 1.03233 -157.751569 -4.464525 160.681783 -28.753504 -62.490806 21.331227 -46.792288 -16.731453 -41.690771 45.361294 -60.949599 34.835625 -8.924556 -3.626904 -0.119449 -114.050284 -70.163108 136.606175 63.278996 -60.934491 28.368439 -2.789917 -6.540232 -5.311222 83.078773 -77.492955 55.084271 -89.894317 65.695506 71.234012 -63.759681 -77.865415 -63.637327 -22.470263 -36.605715 -41.928635 -155.023737 15.304824 -135.057339 90.051911 73.754522 -61.216359 151.373829 -65.585615 176.546977 24.720423 -0.868118 50.844694 111.615905 -26.490706 158.815189 -32.480002 -45.711108 -18.276402 167.644611 -3.829081 -90.464775 136.836468 6.484181 -84.39209 140.367729 5.181773 -120.727759 -2.076321 14.031815 36.246549 -25.114687 -74.484171 -3.077485 -14.155851 1.442058 -4.608023 147.508056 21.874262 -161.535139 168.4153 -24.306101 -177.093555 -79.743133 85.730258 52.647929 46.128853 -74.045618 37.379389 -177.514443 72.549301 -1.599726 159.462286 2.756615 87.743648 78.990586 -0.058128 35.716115 141.797627 73.805081 148.419531 176.512662 79.039868 3.551965 -166.510864 83.979849 118.760215 29.428728 -26.555298 -91.183534 36.848938 -24.322669 9.613679
